<svg data-v-fde0c5aa="" xmlns="http://www.w3.org/2000/svg" viewBox="0 0 300 300" class="iconAboveSlogan"><!----><defs data-v-fde0c5aa=""><!----></defs><rect data-v-fde0c5aa="" fill="#EBF2F2" x="0" y="0" width="300px" height="300px" class="logo-background-square"></rect><defs data-v-fde0c5aa=""><!----></defs><g data-v-fde0c5aa="" id="dc13c713-84cd-48b4-b80b-033eb57dc57d" fill="#0F2020" transform="matrix(3.2581452388086443,0,0,3.2581452388086443,19.087719329249566,144.78134651023876)"><path d="M8.57 12.68L7.69 11.35C7 12.01 6.27 12.40 5.29 12.40C3.25 12.40 2.37 10.02 2.37 8.32C2.37 6.43 3.08 4.47 5.26 4.47C6.03 4.47 6.99 4.80 7.50 5.39L8.51 4.10C7.73 3.40 6.20 3.11 5.19 3.11C2.13 3.11 0.28 5.39 0.28 8.36C0.28 11.44 1.93 13.72 5.18 13.72C6.54 13.72 7.45 13.38 8.57 12.68ZM13.38 8.12L13.66 6.45C12.73 6.45 11.82 7.14 11.35 7.92C11.34 7.45 11.21 6.89 11.02 6.45L9.24 6.59C9.58 7.04 9.69 7.94 9.69 8.47L9.69 13.55L11.37 13.55L11.37 9.41C11.86 8.72 12.43 8.12 13.33 8.12ZM17.84 13.59L20.31 6.59L18.77 6.59C18.33 7.88 17.84 9.16 17.43 10.46C17.33 10.78 17.29 11.17 17.23 11.51C17.16 11.17 17.14 10.78 17.04 10.46C16.62 9.16 16.13 7.88 15.68 6.59L13.87 6.59L16.39 13.54C16.13 14.36 15.71 15.50 14.64 15.50C14.52 15.50 14.39 15.48 14.28 15.46L14.28 16.65L14.80 16.65C16.48 16.65 17.35 14.99 17.84 13.59ZM27.71 10.00C27.71 8.19 26.71 6.40 24.71 6.40C24.05 6.40 23.18 6.72 22.78 7.28C22.74 7.00 22.67 6.71 22.57 6.44L20.82 6.65C21.13 7.10 21.22 8.04 21.22 8.55L21.22 16.59L23.11 16.59C23.09 16.52 22.92 15.82 22.92 15.82L22.92 14.06C22.92 13.82 22.89 13.24 22.89 13.24C23.28 13.55 23.97 13.69 24.44 13.69C26.60 13.69 27.71 12.01 27.71 10.00ZM25.87 10.07C25.87 11.03 25.54 12.50 24.30 12.50C23.23 12.50 22.92 11.58 22.92 10.65L22.92 8.37C23.20 7.95 23.74 7.64 24.25 7.64C25.49 7.64 25.87 9.06 25.87 10.07ZM32.65 13.40L32.45 12.35C32.16 12.42 31.85 12.49 31.54 12.49C30.98 12.49 30.95 11.87 30.95 11.55L30.95 7.70L32.31 7.70L32.65 6.59L30.95 6.59C30.95 5.92 31.08 5.22 31.23 4.56L30.02 4.56C29.81 5.53 29.25 6.75 28.10 6.78L28.10 7.70L29.25 7.70L29.25 11.93C29.25 13.16 29.79 13.69 31.00 13.69C31.50 13.69 32.16 13.55 32.65 13.40ZM39.79 10.07C39.79 8.05 38.51 6.41 36.40 6.41C34.31 6.41 33.01 8.06 33.01 10.07C33.01 12.08 34.29 13.72 36.40 13.72C38.51 13.72 39.79 12.08 39.79 10.07ZM37.94 10.08C37.94 11.10 37.72 12.60 36.40 12.60C35.13 12.60 34.86 11.06 34.86 10.08C34.86 9.10 35.13 7.56 36.40 7.56C37.72 7.56 37.94 9.06 37.94 10.08ZM48.27 13.58L51.81 3.32L50.26 3.32L48.37 8.85C48.15 9.48 47.96 10.11 47.82 10.77C47.71 10.23 47.59 9.69 47.42 9.17C46.77 7.21 46.09 5.28 45.42 3.32L43.37 3.32L46.90 13.58ZM54.39 4.06C54.39 3.47 53.91 3.00 53.33 3.00C52.74 3.00 52.25 3.47 52.25 4.06C52.25 4.65 52.74 5.14 53.33 5.14C53.91 5.14 54.39 4.65 54.39 4.06ZM52.47 13.55L54.15 13.55L54.15 6.59L52.32 6.59C52.33 6.66 52.47 7.32 52.47 7.35ZM60.58 11.38C60.58 8.97 57.51 9.58 57.51 8.29C57.51 7.76 58.00 7.55 58.46 7.55C58.94 7.55 59.47 7.73 59.85 8.02L60.44 6.85C59.85 6.55 59.02 6.41 58.38 6.41C57.06 6.41 55.69 7.11 55.69 8.60C55.69 10.89 58.76 10.25 58.76 11.66C58.76 12.28 58.27 12.56 57.71 12.56C57.13 12.56 56.60 12.28 56.13 12.00L55.52 13.15C56.18 13.51 57.11 13.75 57.85 13.75C59.23 13.75 60.58 12.88 60.58 11.38ZM66.60 11.38C66.60 8.97 63.53 9.58 63.53 8.29C63.53 7.76 64.02 7.55 64.48 7.55C64.96 7.55 65.49 7.73 65.87 8.02L66.46 6.85C65.87 6.55 65.04 6.41 64.40 6.41C63.08 6.41 61.71 7.11 61.71 8.60C61.71 10.89 64.78 10.25 64.78 11.66C64.78 12.28 64.29 12.56 63.73 12.56C63.15 12.56 62.62 12.28 62.15 12.00L61.54 13.15C62.20 13.51 63.13 13.75 63.87 13.75C65.25 13.75 66.60 12.88 66.60 11.38ZM74.87 13.29L74.58 12.26C74.37 12.32 74.13 12.43 73.92 12.43C73.57 12.43 73.57 11.94 73.57 11.70L73.57 6.59L71.69 6.59C71.71 6.66 71.86 7.32 71.86 7.35L71.86 11.05C71.86 11.87 71.16 12.40 70.38 12.40C69.57 12.40 69.47 11.65 69.47 11.00L69.47 6.59L67.61 6.59L67.76 7.35L67.76 11.30C67.76 12.75 68.24 13.75 69.85 13.75C70.71 13.75 71.54 13.34 72.14 12.73C72.25 13.27 72.66 13.66 73.23 13.66C73.77 13.66 74.35 13.43 74.87 13.29ZM80.08 11.38C80.08 8.97 77.01 9.58 77.01 8.29C77.01 7.76 77.50 7.55 77.97 7.55C78.44 7.55 78.97 7.73 79.35 8.02L79.94 6.85C79.35 6.55 78.53 6.41 77.88 6.41C76.57 6.41 75.19 7.11 75.19 8.60C75.19 10.89 78.26 10.25 78.26 11.66C78.26 12.28 77.77 12.56 77.21 12.56C76.64 12.56 76.10 12.28 75.63 12.00L75.03 13.15C75.68 13.51 76.61 13.75 77.35 13.75C78.74 13.75 80.08 12.88 80.08 11.38Z"></path></g><defs data-v-fde0c5aa=""><linearGradient data-v-fde0c5aa="" gradientTransform="rotate(25)" id="9ff92f30-b760-430e-9a28-43d237e55ea6" x1="0%" y1="0%" x2="100%" y2="0%"><stop data-v-fde0c5aa="" offset="0%" stop-color="#050922" stop-opacity="1"></stop><stop data-v-fde0c5aa="" offset="100%" stop-color="#6EE6C7" stop-opacity="1"></stop></linearGradient></defs><g data-v-fde0c5aa="" id="3056b3bc-6431-4f76-8f01-ee9236ffe931" stroke="none" fill="url(#9ff92f30-b760-430e-9a28-43d237e55ea6)" transform="matrix(2.857188184224573,0,0,2.857188184224573,104.28498905240683,54.125900659441456)"><path d="M19.88 8.935L23.796 16l-3.915 7.065H12.12L8.204 16l3.915-7.065h7.761m.59-1h-8.94L7.061 16l4.47 8.065h8.939L24.939 16 20.47 7.935zM4.356 4.15v23.7H1V4.15h3.356m1-1H0v25.7h5.356V3.15zM31 4.15v23.7h-3.356V4.15H31m1-1h-5.356v25.7H32V3.15z"></path></g><defs data-v-fde0c5aa=""><!----></defs><g data-v-fde0c5aa="" id="ab000e99-1562-40d5-a17e-18d805a2082b" fill="#0F2020" transform="matrix(2.213393717258988,0,0,2.213393717258988,50.950624424304415,200.53003128150732)"><path d="M7.83 3.92L7.48 3.92L1.89 3.92L0.70 3.92L0.70 4.19C0.70 4.34 0.80 4.42 0.98 4.44L1.12 4.44C1.19 4.44 1.29 4.45 1.43 4.45C1.57 4.45 1.72 4.47 1.89 4.47L1.89 13.26C1.72 13.26 1.57 13.27 1.43 13.27C1.29 13.27 1.19 13.29 1.12 13.29L0.98 13.29C0.80 13.30 0.70 13.38 0.70 13.54L0.70 13.82L1.89 13.82L2.60 13.82L3.78 13.82L3.78 13.54C3.78 13.38 3.70 13.30 3.51 13.29L3.37 13.29C3.30 13.29 3.21 13.27 3.07 13.27C2.93 13.27 2.77 13.26 2.60 13.26L2.60 9.27L6.30 9.27L6.30 8.67L2.60 8.67L2.60 4.51L7.21 4.51C7.24 5.18 7.27 5.56 7.27 5.63C7.28 5.85 7.38 5.96 7.57 5.96L7.91 5.96L7.91 3.92ZM16.94 4.89C17.00 4.94 17.07 4.98 17.14 5.01C17.21 5.04 17.29 5.07 17.37 5.07C17.46 5.07 17.54 5.04 17.61 5.01C17.68 4.98 17.75 4.94 17.81 4.89C17.86 4.83 17.92 4.76 17.95 4.69C17.98 4.62 18.00 4.54 18.00 4.45C18.00 4.37 17.98 4.30 17.95 4.21C17.92 4.14 17.86 4.07 17.81 4.02C17.75 3.96 17.68 3.91 17.61 3.88C17.54 3.85 17.46 3.84 17.37 3.84C17.29 3.84 17.21 3.85 17.14 3.88C17.07 3.91 17.00 3.96 16.94 4.02C16.88 4.07 16.84 4.14 16.81 4.21C16.79 4.28 16.76 4.37 16.76 4.45C16.76 4.54 16.79 4.62 16.81 4.69C16.84 4.76 16.88 4.83 16.94 4.89ZM18.44 13.29L18.37 13.29L18.26 13.29C18.21 13.29 18.14 13.27 18.05 13.27C17.95 13.27 17.84 13.26 17.71 13.26L17.71 6.85L17.04 6.85L16.03 6.85L16.03 7.13C16.03 7.28 16.13 7.36 16.31 7.38L16.38 7.38C16.41 7.38 16.45 7.39 16.49 7.39L16.70 7.39C16.80 7.39 16.91 7.41 17.04 7.41L17.04 13.26C16.88 13.26 16.74 13.29 16.63 13.29L16.39 13.29L16.31 13.29C16.13 13.30 16.03 13.38 16.03 13.54L16.03 13.82L17.04 13.82L17.71 13.82L18.72 13.82L18.72 13.54C18.72 13.38 18.62 13.30 18.44 13.29ZM34.22 13.29L34.15 13.29L34.03 13.29C33.99 13.29 33.92 13.27 33.82 13.27C33.73 13.27 33.61 13.26 33.49 13.26L33.49 9.37C33.49 8.96 33.43 8.60 33.33 8.27C33.24 7.95 33.10 7.67 32.90 7.45C32.70 7.22 32.47 7.06 32.17 6.93C31.88 6.80 31.54 6.75 31.16 6.75C30.65 6.75 30.17 6.87 29.75 7.11C29.33 7.36 28.97 7.67 28.64 8.08L28.59 7.03C28.57 6.92 28.50 6.86 28.38 6.86L28.01 6.86L27.01 6.86L27.01 7.13C27.01 7.28 27.09 7.36 27.27 7.38L27.36 7.38C27.38 7.38 27.41 7.39 27.45 7.39L27.66 7.39C27.76 7.39 27.89 7.41 28.01 7.41L28.01 13.26C27.85 13.26 27.71 13.29 27.59 13.29L27.37 13.29L27.27 13.29C27.09 13.30 27.01 13.38 27.01 13.54L27.01 13.82L28.01 13.82L28.67 13.82L29.68 13.82L29.68 13.54C29.68 13.38 29.60 13.30 29.41 13.29L29.33 13.29L29.23 13.29C29.19 13.29 29.12 13.27 29.02 13.27C28.92 13.27 28.80 13.26 28.67 13.26L28.67 8.60C28.98 8.19 29.33 7.87 29.72 7.63C30.11 7.39 30.53 7.28 31.00 7.28C31.61 7.28 32.07 7.46 32.37 7.83C32.66 8.20 32.82 8.71 32.82 9.37L32.82 13.82L33.49 13.82L34.50 13.82L34.50 13.54C34.50 13.38 34.40 13.30 34.22 13.29ZM45.42 6.73C45.04 6.73 44.70 6.79 44.39 6.90C44.09 7.01 43.83 7.15 43.61 7.35C43.39 7.55 43.22 7.77 43.11 8.05C42.99 8.33 42.92 8.64 42.92 8.97C42.92 9.39 43.02 9.76 43.20 10.08C43.39 10.40 43.64 10.65 43.97 10.85C43.83 10.92 43.72 11.00 43.61 11.10C43.50 11.20 43.41 11.28 43.34 11.40C43.27 11.51 43.22 11.61 43.18 11.72C43.13 11.83 43.12 11.93 43.12 12.03C43.12 12.29 43.18 12.49 43.32 12.64C43.46 12.80 43.64 12.89 43.88 12.98C43.46 13.12 43.11 13.33 42.87 13.59C42.63 13.86 42.50 14.18 42.50 14.55C42.50 14.80 42.57 15.05 42.70 15.27C42.83 15.50 43.01 15.69 43.26 15.86C43.51 16.03 43.82 16.17 44.18 16.27C44.55 16.37 44.98 16.42 45.47 16.42C45.95 16.42 46.40 16.35 46.79 16.23C47.18 16.10 47.49 15.95 47.77 15.74C48.05 15.53 48.26 15.29 48.40 15.02C48.54 14.76 48.61 14.49 48.61 14.20C48.61 13.89 48.55 13.64 48.41 13.44C48.27 13.24 48.08 13.12 47.85 13.01C47.63 12.89 47.35 12.82 47.05 12.78C46.76 12.74 46.47 12.71 46.16 12.70C45.85 12.68 45.54 12.66 45.25 12.64C44.95 12.63 44.69 12.61 44.46 12.56C44.24 12.50 44.04 12.43 43.90 12.32C43.76 12.21 43.69 12.05 43.69 11.86C43.69 11.72 43.75 11.56 43.86 11.41C43.97 11.26 44.13 11.13 44.32 11.02C44.65 11.14 45.01 11.19 45.42 11.19C45.78 11.19 46.12 11.14 46.42 11.03C46.73 10.92 46.98 10.78 47.21 10.58C47.43 10.39 47.59 10.16 47.71 9.88C47.84 9.60 47.89 9.31 47.89 8.97C47.89 8.72 47.87 8.48 47.80 8.26C47.73 8.04 47.61 7.84 47.49 7.66L48.55 7.57C48.68 7.56 48.75 7.50 48.75 7.39L48.75 7.15L46.96 7.15C46.75 7.01 46.51 6.92 46.26 6.85C46.00 6.78 45.72 6.73 45.42 6.73ZM48.01 14.29C48.01 14.53 47.94 14.74 47.81 14.94C47.68 15.13 47.50 15.33 47.28 15.47C47.05 15.61 46.79 15.72 46.48 15.81C46.17 15.89 45.84 15.92 45.49 15.92C45.11 15.92 44.77 15.88 44.48 15.81C44.18 15.74 43.92 15.62 43.72 15.50C43.53 15.37 43.37 15.22 43.26 15.05C43.15 14.88 43.11 14.69 43.11 14.48C43.11 14.31 43.15 14.17 43.20 14.03C43.26 13.89 43.34 13.76 43.46 13.65C43.57 13.54 43.68 13.43 43.83 13.34C43.99 13.26 44.16 13.17 44.34 13.10C44.58 13.15 44.83 13.17 45.11 13.19C45.39 13.20 45.64 13.22 45.92 13.23C46.20 13.24 46.45 13.26 46.70 13.29C46.96 13.31 47.18 13.38 47.38 13.45C47.57 13.52 47.71 13.62 47.82 13.76C47.94 13.90 48.01 14.07 48.01 14.29ZM45.42 10.74C45.12 10.74 44.87 10.70 44.63 10.61C44.39 10.53 44.20 10.40 44.03 10.25C43.86 10.09 43.75 9.91 43.67 9.70C43.58 9.49 43.54 9.25 43.54 8.99C43.54 8.72 43.58 8.48 43.67 8.26C43.75 8.04 43.86 7.87 44.03 7.71C44.20 7.56 44.39 7.43 44.63 7.35C44.87 7.27 45.12 7.22 45.42 7.22C45.71 7.22 45.98 7.27 46.20 7.35C46.42 7.43 46.62 7.56 46.79 7.71C46.96 7.87 47.08 8.04 47.17 8.26C47.25 8.48 47.29 8.71 47.29 8.97C47.29 9.24 47.25 9.49 47.17 9.70C47.08 9.91 46.96 10.09 46.80 10.25C46.65 10.40 46.45 10.53 46.21 10.61C45.98 10.70 45.71 10.74 45.42 10.74ZM59.99 6.73C59.50 6.73 59.05 6.83 58.66 7.00C58.27 7.17 57.95 7.41 57.68 7.71C57.41 8.02 57.20 8.39 57.06 8.81C56.92 9.23 56.84 9.69 56.84 10.19C56.84 10.78 56.92 11.31 57.08 11.77C57.23 12.24 57.44 12.61 57.72 12.94C58.00 13.26 58.34 13.50 58.73 13.66C59.12 13.83 59.56 13.90 60.03 13.90C60.30 13.90 60.56 13.89 60.82 13.83C61.07 13.78 61.32 13.71 61.54 13.62C61.77 13.54 61.98 13.44 62.16 13.31C62.34 13.19 62.50 13.06 62.61 12.92L62.43 12.70C62.40 12.66 62.34 12.63 62.29 12.63C62.24 12.63 62.16 12.66 62.06 12.74C61.96 12.82 61.82 12.91 61.64 13.01C61.47 13.10 61.25 13.17 61.00 13.26C60.75 13.34 60.44 13.38 60.09 13.38C59.70 13.38 59.35 13.31 59.02 13.17C58.70 13.03 58.44 12.84 58.21 12.57C57.99 12.31 57.82 11.97 57.69 11.58C57.57 11.19 57.51 10.71 57.51 10.19L57.51 10.07L62.54 10.07C62.61 10.07 62.65 10.05 62.68 10.01C62.71 9.97 62.73 9.90 62.73 9.80C62.73 9.31 62.66 8.88 62.52 8.50C62.38 8.12 62.20 7.78 61.95 7.53C61.71 7.28 61.42 7.08 61.08 6.94C60.75 6.80 60.38 6.73 59.99 6.73ZM60.00 7.24C60.33 7.24 60.61 7.29 60.87 7.41C61.14 7.52 61.36 7.67 61.54 7.88C61.73 8.09 61.88 8.33 61.98 8.62C62.08 8.92 62.13 9.25 62.13 9.63L57.54 9.63C57.58 9.27 57.67 8.93 57.79 8.64C57.92 8.34 58.09 8.09 58.30 7.88C58.51 7.67 58.76 7.52 59.04 7.41C59.32 7.29 59.64 7.24 60.00 7.24ZM75.49 6.80C75.31 6.76 75.12 6.73 74.91 6.73C74.37 6.73 73.91 6.89 73.53 7.21C73.15 7.53 72.86 7.98 72.63 8.54L72.58 7.07C72.58 6.99 72.55 6.93 72.52 6.90C72.49 6.87 72.44 6.86 72.35 6.86L72.00 6.86L72.00 6.86L70.99 6.86L70.99 7.13C70.99 7.31 71.09 7.36 71.26 7.38C71.34 7.38 71.43 7.38 72.00 7.41L72.00 13.26C71.43 13.29 71.34 13.29 71.26 13.29C71.09 13.30 70.99 13.36 70.99 13.54L70.99 13.82L72.00 13.82L72.66 13.82L72.66 13.82L73.67 13.82L73.67 13.54C73.67 13.36 73.57 13.30 73.40 13.29C73.32 13.29 73.23 13.29 72.66 13.26L72.66 9.30C72.87 8.68 73.15 8.20 73.49 7.88C73.82 7.56 74.26 7.39 74.79 7.39C74.93 7.39 75.05 7.41 75.17 7.42C75.28 7.43 75.39 7.45 75.46 7.48C75.54 7.50 75.59 7.53 75.64 7.55C75.70 7.56 75.74 7.57 75.77 7.57C75.85 7.57 75.89 7.53 75.91 7.46L75.99 7.00C75.84 6.92 75.67 6.85 75.49 6.80ZM88.62 11.06C88.51 10.86 88.37 10.71 88.19 10.57C88.00 10.43 87.79 10.32 87.57 10.23C87.35 10.15 87.09 10.05 86.86 9.98C86.62 9.91 86.38 9.83 86.14 9.76C85.92 9.69 85.71 9.59 85.53 9.49C85.34 9.39 85.20 9.27 85.09 9.13C84.98 8.99 84.92 8.81 84.92 8.58C84.92 8.40 84.95 8.23 85.04 8.08C85.12 7.92 85.23 7.77 85.39 7.64C85.53 7.52 85.71 7.43 85.92 7.36C86.13 7.29 86.35 7.25 86.60 7.25C86.97 7.25 87.33 7.31 87.71 7.43C87.72 7.60 87.74 7.77 87.75 7.92C87.77 8.08 87.77 8.19 87.78 8.27C87.79 8.36 87.79 8.43 87.79 8.44C87.81 8.67 87.91 8.78 88.10 8.78L88.44 8.78L88.44 7.11C87.71 6.86 87.09 6.75 86.59 6.75C86.24 6.75 85.92 6.80 85.64 6.90C85.36 7.00 85.11 7.14 84.91 7.31C84.71 7.48 84.56 7.69 84.45 7.91C84.34 8.13 84.29 8.37 84.29 8.62C84.29 8.92 84.35 9.16 84.46 9.35C84.57 9.55 84.71 9.70 84.90 9.84C85.08 9.98 85.27 10.09 85.51 10.18C85.74 10.26 85.97 10.35 86.23 10.42C86.46 10.49 86.70 10.57 86.94 10.64C87.16 10.71 87.37 10.81 87.56 10.92C87.74 11.03 87.89 11.16 88.00 11.31C88.12 11.47 88.17 11.65 88.17 11.89C88.17 12.10 88.13 12.29 88.06 12.49C87.98 12.68 87.86 12.84 87.71 12.98C87.56 13.12 87.37 13.23 87.15 13.31C86.93 13.40 86.67 13.44 86.38 13.44C85.85 13.44 85.40 13.37 85.02 13.22C85.01 13.03 84.99 12.87 84.98 12.71C84.97 12.56 84.97 12.43 84.95 12.35C84.94 12.26 84.94 12.19 84.94 12.18C84.92 11.96 84.83 11.84 84.63 11.84L84.29 11.84L84.29 13.54C84.97 13.79 85.65 13.93 86.35 13.93C86.74 13.93 87.08 13.87 87.39 13.76C87.70 13.65 87.95 13.50 88.16 13.30C88.37 13.10 88.52 12.89 88.63 12.63C88.75 12.36 88.80 12.08 88.80 11.77C88.80 11.49 88.73 11.26 88.62 11.06Z"></path></g></svg>